<svg width="18" height="18" viewBox="0 0 18 18" fill="none" xmlns="http://www.w3.org/2000/svg">
<path d="M11.6169 10.8874C11.6169 9.50018 10.7844 9.02445 9.11937 8.82559C7.93005 8.6667 7.69218 8.34987 7.69218 7.79517C7.69218 7.24047 8.08894 6.88367 8.8815 6.88367C9.5951 6.88367 9.99186 7.12153 10.1898 7.71619C10.2297 7.83513 10.3487 7.9141 10.4676 7.9141H11.1022C11.2611 7.9141 11.38 7.79516 11.38 7.63627V7.59631C11.2211 6.72382 10.5075 6.05019 9.59605 5.97122V5.01976C9.59605 4.86087 9.47712 4.74194 9.27921 4.70293H8.68455C8.52566 4.70293 8.40673 4.82186 8.36772 5.01976V5.93126C7.17839 6.09015 6.42484 6.88272 6.42484 7.87414C6.42484 9.18239 7.2174 9.69808 8.88246 9.89598C9.99281 10.0939 10.3496 10.3318 10.3496 10.9664C10.3496 11.601 9.7949 12.0368 9.04135 12.0368C8.01092 12.0368 7.65412 11.601 7.53519 11.0063C7.49523 10.8474 7.3763 10.7685 7.25737 10.7685H6.58373C6.42484 10.7685 6.30591 10.8874 6.30591 11.0463V11.0863C6.4648 12.0777 7.09847 12.7913 8.40673 12.9892V13.9406C8.40673 14.0995 8.52566 14.2185 8.72356 14.2575H9.31822C9.47712 14.2575 9.59605 14.1385 9.63506 13.9406V12.9892C10.8234 12.7903 11.6169 11.9578 11.6169 10.8874Z" fill="#171717"/>
<path d="M6.97867 15.0499C3.88643 13.9395 2.30035 10.4905 3.45067 7.43819C4.04533 5.77314 5.35358 4.50485 6.97867 3.91018C7.13757 3.83121 7.21654 3.71228 7.21654 3.51343V2.95873C7.21654 2.79983 7.13757 2.6809 6.97867 2.64189C6.93871 2.64189 6.85974 2.64189 6.81978 2.68185C3.05391 3.87118 0.9921 7.87491 2.18142 11.6417C2.89502 13.8615 4.60003 15.5665 6.81978 16.2801C6.97867 16.3591 7.13662 16.2801 7.17658 16.1212C7.21654 16.0812 7.21654 16.0422 7.21654 15.9623V15.4076C7.21654 15.2877 7.09761 15.1298 6.97867 15.0499ZM11.1803 2.6809C11.0214 2.60193 10.8635 2.6809 10.8235 2.83979C10.7836 2.87976 10.7836 2.91877 10.7836 2.99869V3.55339C10.7836 3.71228 10.9025 3.87022 11.0214 3.95015C14.1137 5.0605 15.6997 8.50953 14.5494 11.5618C13.9548 13.2269 12.6465 14.4952 11.0214 15.0898C10.8625 15.1688 10.7836 15.2877 10.7836 15.4866V16.0413C10.7836 16.2002 10.8625 16.3191 11.0214 16.3581C11.0614 16.3581 11.1404 16.3581 11.1803 16.3181C14.9462 15.1288 17.008 11.1251 15.8187 7.35827C15.1051 5.09951 13.3611 3.39449 11.1803 2.6809Z" fill="#171717"/>
</svg>
